<?xml version="1.0" encoding="UTF-8"?>
<svg version="1.1" xmlns="http://www.w3.org/2000/svg" width="1024" height="1024">
<path d="M0 0 C337.92 0 675.84 0 1024 0 C1024 337.92 1024 675.84 1024 1024 C686.08 1024 348.16 1024 0 1024 C0 686.08 0 348.16 0 0 Z " fill="#FDFDFD" transform="translate(0,0)"></path>
<path d="M0 0 C2.53201536 2.53201536 3.46225809 5.10710471 4.9375 8.375 C14.88742008 28.96698546 36.93242112 42.58897179 57.9375 50 C59.95424063 50.67894701 61.97357019 51.3505433 64 52 C63.49210937 51.41734375 62.98421875 50.8346875 62.4609375 50.234375 C53.8248104 39.94865058 47.58920671 28.93339067 47.8125 15.3125 C47.81314453 14.55388672 47.81378906 13.79527344 47.81445312 13.01367188 C47.84029069 9.76100988 47.96508762 7.10473714 49 4 C49.66 4 50.32 4 51 4 C51.3403125 4.88300781 51.680625 5.76601562 52.03125 6.67578125 C55.40543871 15.03048786 59.24496199 21.97906638 65 29 C65.99966797 30.24523437 65.99966797 30.24523437 67.01953125 31.515625 C73.16681142 38.7691875 80.39548899 44.37601945 88 50 C88.8559375 50.63808594 89.711875 51.27617187 90.59375 51.93359375 C105.78884775 62.91791756 105.78884775 62.91791756 122.875 70.1875 C140.96880655 76.05576159 158.91818904 87.17818847 167.8515625 104.3359375 C168.87141804 106.70172485 169.3780746 108.60193853 169.75 111.125 C171.14492644 117.93224101 178.23819731 121.9729492 183.49609375 125.83203125 C187.95756474 128.76589458 191.49666311 130.24080498 196.8125 130.875 C201.51060896 131.50628763 201.51060896 131.50628763 203.76953125 133.78515625 C208.6954009 141.60692621 208.84167579 150.01448029 208 159 C207.16067965 162.40524258 205.89375159 165.06203025 204 168 C203.57589844 168.68320312 203.15179687 169.36640625 202.71484375 170.0703125 C196.13584355 179.70973897 186.44522717 185.64237949 175.1875 188.25 C169.47460744 189.27562166 163.78378766 189.17888003 158 189 C158.19529297 188.12988281 158.19529297 188.12988281 158.39453125 187.2421875 C158.53246094 186.46101562 158.67039062 185.67984375 158.8125 184.875 C158.96332031 184.10929688 159.11414063 183.34359375 159.26953125 182.5546875 C158.8639084 178.71008829 156.76584961 176.49879322 154 174 C151.63018823 172.34630812 149.16163555 171.06751844 146.5625 169.8125 C145.93923828 169.48314453 145.31597656 169.15378906 144.67382812 168.81445312 C133.96187025 163.50596563 122.25625114 162.55529273 110.47663116 162.74394035 C108.31975355 162.77847862 106.163406 162.7935562 104.00628662 162.80458069 C100.19255489 162.82711936 96.37920564 162.86602725 92.56567383 162.9105835 C45.01884129 163.46324963 45.01884129 163.46324963 28.875 158.875 C28.19308594 158.69324219 27.51117187 158.51148438 26.80859375 158.32421875 C25.2025728 157.8944385 23.60068691 157.4492391 22 157 C22 156.34 22 155.68 22 155 C23.10794922 154.67128906 23.10794922 154.67128906 24.23828125 154.3359375 C35.15356778 150.92404362 44.40911016 146.75672616 52 138 C48.67230203 137.27899877 45.3473882 136.62198092 42 136 C40.96939453 135.80736572 40.96939453 135.80736572 39.91796875 135.61083984 C19.83844655 131.95647084 0.18509531 132.30218032 -20 135 C-20.73557129 135.09651855 -21.47114258 135.19303711 -22.22900391 135.29248047 C-45.6306959 138.50592589 -67.41157899 147.44627502 -86 162 C-86.79148437 162.59554687 -87.58296875 163.19109375 -88.3984375 163.8046875 C-97.51447166 171.1045003 -104.7097678 183.39845202 -106.4453125 194.96875 C-106.97575472 208.40661951 -101.84988514 219.53208011 -92.921875 229.265625 C-64.61527759 256.80197486 -18.85002015 263.31121476 18.20703125 271.625 C30.21390147 274.32161928 41.94961413 277.29724208 53.61572266 281.22387695 C56.47299205 282.153967 59.35116279 283.00389326 62.23046875 283.86328125 C92.69924243 293.20842102 122.06856172 307.64016649 145 330 C145.77601563 330.70253906 146.55203125 331.40507813 147.3515625 332.12890625 C168.79826458 352.09783204 177.82538474 380.4446981 179 409 C186.04505602 396.8487181 191.1493643 384.16101876 196 371 C196.29680664 370.21222168 196.59361328 369.42444336 196.89941406 368.61279297 C206.33859537 343.38777892 209.43006689 316.70612672 209.375 289.9375 C209.37445618 288.94143738 209.37391235 287.94537476 209.37335205 286.91912842 C209.33645825 272.22447637 208.62045294 258.29720723 205 244 C204.55824461 242.07720153 204.11820473 240.1540083 203.6796875 238.23046875 C200.95677934 226.73269309 197.26743398 215.91861917 192.63671875 205.0546875 C191.3735333 202.05727508 190.44933601 199.24303382 190 196 C191.89454824 195.03912864 193.79069581 194.08141031 195.6875 193.125 C196.74324219 192.59132813 197.79898437 192.05765625 198.88671875 191.5078125 C201.56178437 190.21223492 204.2361092 189.08588742 207 188 C216.2421389 209.85752137 223.02966151 231.59485459 227 255 C227.11859375 255.67224609 227.2371875 256.34449219 227.359375 257.03710938 C231.42912595 281.18914329 230.35593621 307.99630502 226 332 C225.85014648 332.85932129 225.70029297 333.71864258 225.54589844 334.60400391 C214.83219934 395.23535197 182.90143557 453.69993705 133 491 C131.87884859 491.86190416 130.75775894 492.72388867 129.63671875 493.5859375 C120.18324054 500.76550525 110.26984483 507.05762882 100 513 C99.32275879 513.39429199 98.64551758 513.78858398 97.94775391 514.19482422 C85.21699524 521.51727432 71.70886606 526.80529516 58 532 C57.1244043 532.33805664 56.24880859 532.67611328 55.34667969 533.02441406 C-13.04460204 559.28731272 -92.0129227 553.70535769 -158.25146484 524.25585938 C-177.93146306 515.26368396 -196.39413265 503.86405845 -213 490 C-213.57556641 489.52594727 -214.15113281 489.05189453 -214.74414062 488.56347656 C-227.38531627 478.13137075 -238.93089272 466.9666921 -249 454 C-249.79921875 452.99453125 -250.5984375 451.9890625 -251.421875 450.953125 C-257.74678566 442.93582345 -263.43618304 434.55880779 -269 426 C-268.67 425.34 -268.34 424.68 -268 424 C-267.34257812 424.80179688 -266.68515625 425.60359375 -266.0078125 426.4296875 C-253.84383082 441.05181169 -240.68842182 455.13072612 -225 466 C-224.3409668 466.46567383 -223.68193359 466.93134766 -223.00292969 467.41113281 C-196.20082327 486.27187436 -166.40042676 498.83143741 -134 504 C-132.82050781 504.20625 -131.64101563 504.4125 -130.42578125 504.625 C-88.13945256 511.09602161 -40.38013242 504.10102293 -3 483 C-2.41541016 482.67 -1.83082031 482.34 -1.22851562 482 C16.9651239 471.56870836 33.03595601 457.69932316 40.25 437.5 C42.72946721 426.19720351 42.12506111 413.42561482 35.890625 403.5625 C27.97191608 391.66938806 18.46412523 383.97621503 6 377 C5.42459473 376.67531738 4.84918945 376.35063477 4.25634766 376.01611328 C-18.1156239 363.60371592 -43.39904063 356.87705965 -68.20361328 351.30004883 C-76.64731916 349.37723079 -84.89757077 347.0697656 -93.16015625 344.48828125 C-96.44443888 343.46281747 -99.73821355 342.50721411 -103.05859375 341.60546875 C-129.64433901 334.38017968 -157.78047651 324.698932 -180 308 C-180.9384375 307.34128906 -181.876875 306.68257812 -182.84375 306.00390625 C-210.49252939 286.17682103 -230.70369859 258.48517278 -237.08984375 224.5546875 C-238.25130402 217.2879714 -238.34400461 210.09642515 -238.3125 202.75 C-238.31034485 202.06579987 -238.3081897 201.38159973 -238.30596924 200.67666626 C-238.25439574 190.4709267 -237.82662983 180.87179053 -235 171 C-234.80664062 170.30229492 -234.61328125 169.60458984 -234.4140625 168.88574219 C-231.0795626 157.09663837 -226.05068126 146.6223071 -220 136 C-241.7219286 161.03669861 -257.28542198 188.57761883 -268 220 C-268.41636719 221.18207031 -268.83273437 222.36414063 -269.26171875 223.58203125 C-285.38892189 272.21861622 -283.2492383 329.63030542 -261 376 C-260.66774414 376.69351562 -260.33548828 377.38703125 -259.99316406 378.1015625 C-248.8988098 400.84860759 -232.8712903 423.10296776 -213 439 C-211.65808594 440.09828125 -211.65808594 440.09828125 -210.2890625 441.21875 C-173.74794421 470.30437564 -129.07030439 486.97126876 -83 493 C-86.58398937 495.22473644 -89.59581269 495.28424561 -93.765625 495.3359375 C-94.42744781 495.34427109 -95.08927063 495.35260468 -95.77114868 495.3611908 C-97.93099753 495.38070798 -100.09007658 495.38062093 -102.25 495.375 C-102.98897522 495.37478851 -103.72795044 495.37457703 -104.48931885 495.37435913 C-117.9668585 495.33591227 -130.833643 493.99235386 -144 491 C-144.85754883 490.80744629 -145.71509766 490.61489258 -146.59863281 490.41650391 C-157.7287169 487.84950763 -168.47094801 484.42442829 -179 480 C-179.67208496 479.71817871 -180.34416992 479.43635742 -181.03662109 479.14599609 C-197.35957325 472.16915721 -212.75562035 462.85667885 -226 451 C-226.97066406 450.13761719 -227.94132812 449.27523438 -228.94140625 448.38671875 C-231.50536655 446.08531785 -234.02995376 443.74548782 -236.53564453 441.38085938 C-237.93205356 440.0640722 -239.33882594 438.75830084 -240.74609375 437.453125 C-261.52304315 417.5506771 -276.07033161 391.79030188 -286 365 C-286.44214844 363.81019531 -286.88429688 362.62039063 -287.33984375 361.39453125 C-290.84730992 351.44782627 -293.14561311 341.36965104 -295 331 C-295.1210611 330.3629715 -295.24212219 329.72594299 -295.36685181 329.0696106 C-297.83092408 315.97659581 -298.52637507 303.24439454 -298.4375 289.9375 C-298.43412628 288.95276703 -298.43075256 287.96803406 -298.42727661 286.95346069 C-298.3498936 271.3181364 -297.5509577 256.2859795 -294 241 C-293.75330566 239.9284668 -293.50661133 238.85693359 -293.25244141 237.75292969 C-284.44805962 200.62211145 -268.52818809 165.39427798 -244 136 C-243.29689697 135.14462646 -243.29689697 135.14462646 -242.57958984 134.27197266 C-231.8836762 121.28123355 -220.32630088 109.31490302 -207 99 C-205.74679627 97.99553925 -204.49423721 96.99027386 -203.2421875 95.984375 C-192.72256915 87.63081836 -181.67002771 80.62990719 -170 74 C-169.35385742 73.62536621 -168.70771484 73.25073242 -168.04199219 72.86474609 C-117.37430785 43.57206153 -54.68661069 33.73674609 3 42 C3.66 42.33 4.32 42.66 5 43 C4.66226562 42.29875 4.32453125 41.5975 3.9765625 40.875 C3.53054688 39.92625 3.08453125 38.9775 2.625 38 C2.18414063 37.071875 1.74328125 36.14375 1.2890625 35.1875 C-1.37819659 28.59209571 -2.32700591 22.52846057 -2.25 15.4375 C-2.25773437 14.72142578 -2.26546875 14.00535156 -2.2734375 13.26757812 C-2.25605013 8.49039765 -1.50193233 4.53559722 0 0 Z " fill="#040404" transform="translate(547,212)"></path>
<path d="M0 0 C0.81603699 0.00068481 1.63207397 0.00136963 2.47283936 0.0020752 C4.82579252 0.00859455 7.1783931 0.0249912 9.53125 0.046875 C10.23146271 0.05126587 10.93167542 0.05565674 11.65310669 0.06018066 C16.03142873 0.12233611 20.18943886 0.55027 24.5 1.25 C24.5 1.58 24.5 1.91 24.5 2.25 C23.7157666 2.35022461 22.9315332 2.45044922 22.12353516 2.55371094 C2.84207369 5.04400952 -16.13891496 7.5342724 -34.5 14.25 C-35.64855469 14.63414062 -36.79710937 15.01828125 -37.98046875 15.4140625 C-61.29931483 23.40320706 -81.72367387 36.28594888 -99.5 53.25 C-100.24378906 53.91902344 -100.98757813 54.58804688 -101.75390625 55.27734375 C-112.64656421 65.45013909 -119.95792387 78.54916458 -125.5 92.25 C-125.93441406 93.28640625 -126.36882812 94.3228125 -126.81640625 95.390625 C-133.27704594 113.66950802 -130.87247952 134.53630298 -122.85546875 151.7890625 C-105.77254556 185.33791843 -71.87652429 199.72607486 -38.04785156 210.98193359 C-27.22871993 214.47154329 -16.30171835 217.05918101 -5.1953125 219.44482422 C-1.02960285 220.35249536 3.12632124 221.29831513 7.28125 222.25390625 C8.03762253 222.42785416 8.79399506 222.60180206 9.57328796 222.78102112 C11.11239213 223.13517987 12.6514698 223.48945377 14.19052124 223.84384155 C24.0138762 226.10312103 33.84207792 228.33870126 43.6875 230.5 C46.29280744 231.0784506 48.89653149 231.66326444 51.5 232.25 C52.68851563 232.51683594 53.87703125 232.78367187 55.1015625 233.05859375 C92.07130837 241.81458619 130.96398001 254.57357561 160.5 279.25 C161.51320313 280.08144531 162.52640625 280.91289063 163.5703125 281.76953125 C181.4854871 297.21450768 193.75709132 318.75412628 195.68457031 342.52636719 C196.58914008 358.3335611 193.25280485 371.89035909 186.5 386.25 C186.08234375 387.15105469 185.6646875 388.05210937 185.234375 388.98046875 C174.13176026 411.08998604 152.59972971 425.09730802 132.5 438.25 C131.84 437.92 131.18 437.59 130.5 437.25 C131.24443359 436.41082031 131.24443359 436.41082031 132.00390625 435.5546875 C147.27656555 417.52889227 150.96338298 398.24051675 149.5 375.25 C147.87196865 359.22947872 137.79616637 345.11169844 126.5 334.25 C125.69820312 333.45207031 124.89640625 332.65414063 124.0703125 331.83203125 C117.53516157 325.60756782 110.25663426 320.78307333 102.5 316.25 C101.81856934 315.85167969 101.13713867 315.45335937 100.43505859 315.04296875 C56.44082935 289.77160844 3.08089275 280.48401661 -46.23608398 270.92553711 C-52.40144057 269.64948492 -58.44858246 267.97668893 -64.5 266.25 C-65.32999512 266.01829102 -66.15999023 265.78658203 -67.01513672 265.54785156 C-95.30234318 257.59735078 -122.89000583 246.44364889 -145.5 227.25 C-146.4384375 226.47398437 -147.376875 225.69796875 -148.34375 224.8984375 C-165.80890333 209.83719572 -178.62113701 189.09483723 -182.5 166.25 C-182.72042969 165.033125 -182.94085938 163.81625 -183.16796875 162.5625 C-185.60553274 147.11914155 -185.09147235 132.41573694 -181.5 117.25 C-181.25636719 116.13753906 -181.01273437 115.02507812 -180.76171875 113.87890625 C-176.7401526 97.69734387 -168.62407198 82.41315804 -158.5 69.25 C-157.91347656 68.44304687 -157.32695312 67.63609375 -156.72265625 66.8046875 C-129.19949922 30.30789722 -86.64249408 10.89157782 -42.5 3.25 C-41.28014404 3.02570313 -41.28014404 3.02570313 -40.03564453 2.796875 C-26.70146852 0.41035324 -13.50834838 -0.01643391 0 0 Z " fill="#FCFCFC" transform="translate(511.5,268.75)"></path>
<path d="M0 0 C0.99 0.804375 1.98 1.60875 3 2.4375 C23.9054742 18.02491497 49.63499385 26.64802519 74.625 33 C95.48138398 38.37389235 121.9345703 45.44123581 133.91015625 64.84765625 C135 67 135 67 135.9375 70.5 C139.64409892 82.70997291 152.54931964 91.64239407 163.15234375 97.56640625 C166.69188023 99.34831282 170.27402691 100.6642738 174 102 C175.96093515 105.92187031 174.65716345 110.78817972 174 115 C172.15656299 120.42789787 168.8102072 123.99140177 164 127 C160.72073471 128.27633212 157.42763938 129.21378091 154 130 C153.65710938 129.443125 153.31421875 128.88625 152.9609375 128.3125 C143.56750867 114.61567766 125.20727309 108.71314067 109.51220703 105.52172852 C96.65823869 103.20344899 83.13007027 102.97404908 70.20166016 104.78173828 C65.3209915 105.26558368 60.39904635 105.10059067 55.5 105.0625 C54.39140625 105.05798828 53.2828125 105.05347656 52.140625 105.04882812 C49.42702601 105.03713158 46.71354239 105.02074086 44 105 C44.44730469 104.33355469 44.89460937 103.66710937 45.35546875 102.98046875 C49.57448686 96.54849018 53.02373228 90.09092357 56 83 C55.29383545 82.867146 54.5876709 82.73429199 53.86010742 82.59741211 C50.94551828 81.98861999 48.10681488 81.23875266 45.23828125 80.44140625 C-2.91130611 67.28775081 -56.60544148 69.44056853 -101.06835938 93.87744141 C-106.69315357 97.14624875 -111.89618229 100.9780309 -117 105 C-117.91652344 105.71929687 -118.83304687 106.43859375 -119.77734375 107.1796875 C-131.35494149 116.91985447 -140.32729763 130.98840527 -143 146 C-143.26192281 149.17315258 -143.28064921 152.31759042 -143.25 155.5 C-143.25773437 156.30308594 -143.26546875 157.10617187 -143.2734375 157.93359375 C-143.24760111 165.90412127 -141.64557116 172.29155734 -137.8125 179.375 C-136.81571594 181.21916723 -135.86147546 183.08887696 -135 185 C-135.33 185.66 -135.66 186.32 -136 187 C-150.89963195 175.86415816 -162.79978633 161.82808384 -166.578125 143.140625 C-169.11283155 124.27114292 -163.87338481 106.47823573 -152.64257812 91.14697266 C-124.7892237 55.42325044 -80.75933622 38.0495596 -36.95507812 32.40283203 C-12.79907542 29.94249842 11.52266218 32.11368579 35 38 C36.13405273 38.28230469 36.13405273 38.28230469 37.29101562 38.5703125 C39.1944966 39.04492935 41.09731653 39.52219608 43 40 C42.10539063 39.5153125 41.21078125 39.030625 40.2890625 38.53125 C32.58682979 34.28844941 25.7045845 29.73466269 19 24 C18.40058594 23.54496094 17.80117188 23.08992188 17.18359375 22.62109375 C13.03869334 19.39941942 9.89341714 15.55914742 6.6875 11.4375 C6.254375 10.88296143 5.82125 10.32842285 5.375 9.75708008 C3.01388271 6.63763076 1.25089337 3.71121403 0 0 Z " fill="#FBFBFB" transform="translate(566,255)"></path>
<path d="M0 0 C24.0038742 9.25822282 46.02616945 25.39626409 57.8125 48.5625 C63.30715017 64.46806627 61.92823261 78.9448652 55 94 C50.50022556 102.87642072 43.92953755 109.97395079 37 117 C36.21882812 117.7940625 35.43765625 118.588125 34.6328125 119.40625 C5.4214424 147.33900794 -37.97654497 155.67024499 -76.9375 155.4375 C-78.46466141 155.43493195 -78.46466141 155.43493195 -80.02267456 155.43231201 C-119.57764353 155.31848031 -119.57764353 155.31848031 -136 149 C-136 148.67 -136 148.34 -136 148 C-135.32122803 147.98018066 -134.64245605 147.96036133 -133.94311523 147.93994141 C-86.30264858 146.48028428 -38.47623223 135.36261309 -2 103 C-1.12730469 102.24074219 -0.25460937 101.48148438 0.64453125 100.69921875 C10.7897991 91.26465268 17.88901934 79.15513811 22 66 C22.54914063 64.32357422 22.54914063 64.32357422 23.109375 62.61328125 C26.61368758 48.39622363 23.53509965 32.75039453 16.39453125 20.171875 C11.71177234 12.60503279 6.36567312 6.17844744 0 0 Z " fill="#FAFAFA" transform="translate(583,588)"></path>
<path d="M0 0 C4.98933064 0.51613765 9.27027318 1.26254933 14 3 C14.68964844 3.20496094 15.37929688 3.40992188 16.08984375 3.62109375 C28.58601085 7.40198533 34.68816881 14.68269219 42 25 C38.97636625 24.7704334 35.95786084 24.5170916 32.9375 24.25 C32.08994141 24.188125 31.24238281 24.12625 30.36914062 24.0625 C23.07888758 23.38695532 18.4268815 21.53719429 13.25 16.125 C11 13 11 13 9.6875 10 C7.60337192 6.29488341 5.10532551 4.57500724 1.64453125 2.19921875 C1.10183594 1.80347656 0.55914063 1.40773438 0 1 C0 0.67 0 0.34 0 0 Z " fill="#0A0A0A" transform="translate(648,309)"></path>
<path d="M0 0 C3.3 0.33 6.6 0.66 10 1 C5.78683237 3.10658382 2.93519357 3.26221542 -1.609375 3.1953125 C-2.33618469 3.1924826 -3.06299438 3.18965271 -3.81182861 3.18673706 C-6.12472251 3.17557523 -8.43722388 3.15047851 -10.75 3.125 C-12.32160898 3.11496501 -13.89322404 3.10584006 -15.46484375 3.09765625 C-19.31004622 3.07564904 -23.15495664 3.04114715 -27 3 C-27 2.67 -27 2.34 -27 2 C-18.09 1.67 -9.18 1.34 0 1 C0 0.67 0 0.34 0 0 Z " fill="#343434" transform="translate(454,704)"></path>
<path d="M0 0 C3.05917167 0.33990796 4.80401508 0.85698398 7.3125 2.6875 C9.45553291 5.62424881 9.32316568 7.44517748 9 11 C8.236875 10.360625 7.47375 9.72125 6.6875 9.0625 C4.11753287 6.85767219 4.11753287 6.85767219 1 6 C0.67 4.02 0.34 2.04 0 0 Z " fill="#141414" transform="translate(720,358)"></path>
<path d="M0 0 C0 3.88091967 -1.65317733 6.39673296 -3.5 9.6875 C-3.83386719 10.29400391 -4.16773438 10.90050781 -4.51171875 11.52539062 C-5.335537 13.02003231 -6.16703451 14.51043671 -7 16 C-7.99 16 -8.98 16 -10 16 C-10.99 16.66 -11.98 17.32 -13 18 C-11.70944264 15.25032269 -10.28915704 12.92126698 -8.3984375 10.546875 C-7.66367187 9.61875 -7.66367187 9.61875 -6.9140625 8.671875 C-6.40617187 8.03765625 -5.89828125 7.4034375 -5.375 6.75 C-4.859375 6.1003125 -4.34375 5.450625 -3.8125 4.78125 C-2.54485821 3.18496033 -1.27285639 1.59213474 0 0 Z " fill="#D0D0D2" transform="translate(328,345)"></path>
<path d="M0 0 C0.66 1.32 1.32 2.64 2 4 C0.02 5.32 -1.96 6.64 -4 8 C-4.66 7.67 -5.32 7.34 -6 7 C-4.02 4.69 -2.04 2.38 0 0 Z " fill="#DBDBDC" transform="translate(648,699)"></path>
<path d="M0 0 C2.31 0 4.62 0 7 0 C7 0.99 7 1.98 7 3 C4.69 3 2.38 3 0 3 C0 2.01 0 1.02 0 0 Z " fill="#C0C0C1" transform="translate(460,704)"></path>
<path d="M0 0 C2.64752004 2.57784846 4.94432065 4.91648098 7 8 C6.01 8 5.02 8 4 8 C0 2.74285714 0 2.74285714 0 0 Z " fill="#565656" transform="translate(278,636)"></path>
</svg>